<svg width="17" height="17" viewBox="0 0 17 17" fill="none" xmlns="http://www.w3.org/2000/svg">
<path fill-rule="evenodd" clip-rule="evenodd" d="M2.48308 2.37799C2.27272 3.83252 2.0654 7.76081 5.15229 10.8477C8.23919 13.9346 12.1675 13.7273 13.622 13.5169V10.5406L10.5657 10.0312L10.1043 10.954C9.9876 11.1875 9.74902 11.3349 9.48805 11.3349V10.6459C9.48805 11.3349 9.48805 11.3349 9.48805 11.3349L9.48664 11.3349L9.4851 11.3349L9.48162 11.3349L9.47312 11.3348C9.46677 11.3347 9.45906 11.3345 9.45003 11.3342C9.43197 11.3336 9.40861 11.3326 9.38032 11.3307C9.32376 11.3269 9.24729 11.3198 9.15377 11.3064C8.96685 11.2797 8.71079 11.2279 8.40893 11.1273C7.80282 10.9253 7.01805 10.5283 6.24489 9.75511C5.47173 8.98195 5.07474 8.19718 4.87271 7.59107C4.77209 7.28921 4.72026 7.03315 4.69356 6.84623C4.6802 6.75271 4.67309 6.67624 4.66932 6.61968C4.66743 6.59139 4.66638 6.56803 4.6658 6.54997C4.6655 6.54094 4.66533 6.53323 4.66523 6.52688L4.66513 6.51838L4.66511 6.5149L4.6651 6.51336C4.6651 6.51336 4.6651 6.51195 5.35409 6.51195H4.6651C4.6651 6.28158 4.78023 6.06645 4.97191 5.93867L6.57374 4.87078L5.57662 2.37799H2.48308ZM6.09383 6.84686L7.33811 6.01734C7.8803 5.65588 8.09517 4.96404 7.85316 4.35901L6.85604 1.86622C6.64678 1.34305 6.14008 1 5.57662 1H2.44708C1.82112 1 1.23191 1.43487 1.12915 2.11403C0.895365 3.65917 0.577155 8.22134 4.17791 11.8221C7.77866 15.4228 12.3408 15.1046 13.886 14.8709C14.5651 14.7681 15 14.1789 15 13.5529V10.5406C15 9.86696 14.513 9.29208 13.8486 9.18134L10.7923 8.67196C10.1956 8.57251 9.60375 8.87387 9.33322 9.41494L9.09448 9.89241C9.01945 9.87399 8.93569 9.85035 8.84469 9.82002C8.41731 9.67756 7.8241 9.38555 7.21927 8.78073C6.61445 8.1759 6.32244 7.58269 6.17998 7.15531C6.14148 7.03982 6.11377 6.93599 6.09383 6.84686Z" fill="#BFBFBF"/>
</svg>
