<svg width="17" height="17" viewBox="0 0 17 17" fill="none" xmlns="http://www.w3.org/2000/svg">
<path d="M8.5 17C13.1944 17 17 13.1944 17 8.5C17 3.80558 13.1944 0 8.5 0C3.80558 0 0 3.80558 0 8.5C0 13.1944 3.80558 17 8.5 17Z" fill="url(#paint0_linear_72_231)"/>
<path fill-rule="evenodd" clip-rule="evenodd" d="M3.84759 8.41027C6.32551 7.33068 7.97785 6.61895 8.8046 6.27507C11.1651 5.29325 11.6556 5.12269 11.9753 5.11706C12.0457 5.11582 12.2029 5.13325 12.3047 5.21588C12.3907 5.28566 12.4144 5.37992 12.4257 5.44607C12.437 5.51223 12.4511 5.66293 12.4399 5.78069C12.312 7.12474 11.7585 10.3864 11.4769 11.8917C11.3577 12.5287 11.1231 12.7423 10.896 12.7632C10.4024 12.8086 10.0276 12.437 9.54948 12.1236C8.80137 11.6332 8.37873 11.3279 7.65256 10.8494C6.81334 10.2964 7.35737 9.99241 7.83564 9.49566C7.9608 9.36566 10.1357 7.38746 10.1778 7.208C10.183 7.18556 10.1879 7.1019 10.1382 7.05772C10.0885 7.01355 10.0152 7.02865 9.96222 7.04067C9.88719 7.0577 8.69207 7.84763 6.37687 9.41045C6.03764 9.64339 5.73038 9.75689 5.45508 9.75094C5.15158 9.74438 4.56778 9.57934 4.13379 9.43826C3.60148 9.26523 3.1784 9.17375 3.21524 8.87988C3.23443 8.72682 3.44521 8.57028 3.84759 8.41027Z" fill="white"/>
<defs>
<linearGradient id="paint0_linear_72_231" x1="8.5" y1="0" x2="8.5" y2="16.8739" gradientUnits="userSpaceOnUse">
<stop/>
<stop offset="1"/>
</linearGradient>
</defs>
</svg>
