<svg width="17" height="17" viewBox="0 0 35 35" fill="none" xmlns="http://www.w3.org/2000/svg">
<rect x="0.928711" width="34.0714" height="34.0714" rx="13" fill="black"/>
<path d="M20.4998 7H16.4999C12.3103 7 8.90186 10.4077 8.90186 14.5964V18.1997C8.90186 21.319 10.8187 24.1224 13.7008 25.2642V27.6001C13.7008 27.7585 13.794 27.9016 13.9388 27.9656C13.9908 27.9888 14.046 28 14.1008 28C14.1979 28 14.2943 27.9644 14.3691 27.8964L16.6882 25.7961H20.4998C24.6893 25.7961 28.0978 22.3884 28.0978 18.1997V14.5964C28.0978 10.4077 24.6893 7 20.4998 7ZM27.298 18.1997C27.298 21.9473 24.2486 24.9962 20.4998 24.9962H16.5339C16.4347 24.9962 16.3391 25.033 16.2655 25.0998L14.5007 26.6983V24.987C14.5007 24.8175 14.3939 24.6663 14.2339 24.6103C11.5233 23.6517 9.70169 21.0755 9.70169 18.1997V14.5964C9.70169 10.8488 12.7514 7.79983 16.4999 7.79983H20.4998C24.2486 7.79983 27.298 10.8488 27.298 14.5964V18.1997V18.1997Z" fill="white" stroke="white"/>
<path d="M23.7851 19.1947L21.3272 17.5982C21.0585 17.4234 20.7386 17.3642 20.4254 17.429C20.1119 17.495 19.8424 17.6802 19.6676 17.9501L19.552 18.1277C18.4882 17.7761 17.3153 17.327 16.613 15.2943L16.9038 15.0415C17.4029 14.6076 17.4553 13.8486 17.0214 13.3487L15.0986 11.1367C14.9538 10.97 14.701 10.9528 14.5343 11.0971L13.3269 12.1465C12.2679 13.0671 12.7626 14.4288 12.9254 14.8764C12.9326 14.8964 12.9414 14.9155 12.9518 14.9343C12.9938 15.0095 13.9964 16.7988 15.6156 18.448C17.2413 20.1041 20.1763 21.6333 20.2663 21.6777C20.6014 21.8953 20.9785 21.9997 21.3516 21.9997C22.0067 21.9997 22.649 21.6785 23.0321 21.0899L23.9031 19.7485C24.0231 19.5626 23.9703 19.315 23.7851 19.1947ZM22.361 20.6539C22.0007 21.209 21.2561 21.3666 20.6682 20.9875C20.639 20.9723 17.7232 19.4538 16.1863 17.8881C14.7498 16.4248 13.796 14.7992 13.6661 14.5724C13.3493 13.6842 13.4053 13.1383 13.8516 12.7504L14.7574 11.9634L16.4179 13.8734C16.5654 14.0429 16.5482 14.2909 16.3795 14.4376L15.8888 14.864C15.7692 14.9679 15.722 15.1323 15.7688 15.2835C16.6054 18.0021 18.2323 18.536 19.42 18.9259L19.5932 18.9831C19.7664 19.0415 19.9559 18.9747 20.0551 18.8219L20.3387 18.3852C20.397 18.2948 20.4866 18.2337 20.5906 18.2117C20.695 18.1893 20.8014 18.2101 20.8917 18.2688L23.0145 19.6474L22.361 20.6539Z" fill="white"/>
<path d="M19.4128 13.4974C19.2001 13.4363 18.9789 13.5598 18.9185 13.7726C18.8582 13.9849 18.9813 14.2061 19.1937 14.2665C19.7896 14.436 20.2643 14.9115 20.4322 15.5078C20.4818 15.6838 20.6422 15.7994 20.8169 15.7994C20.8529 15.7994 20.8893 15.7946 20.9257 15.7846C21.1381 15.7246 21.2621 15.5038 21.2021 15.2911C20.9593 14.4296 20.2735 13.7422 19.4128 13.4974Z" fill="white"/>
<path d="M22.4562 15.8857C22.4922 15.8857 22.5286 15.8809 22.565 15.8709C22.7777 15.8109 22.9013 15.5898 22.8413 15.3774C22.3694 13.7046 21.0381 12.3705 19.3664 11.8946C19.1541 11.8334 18.9329 11.9578 18.8725 12.1701C18.8121 12.3825 18.9353 12.6036 19.1477 12.664C20.5542 13.0639 21.6743 14.1873 22.0715 15.5946C22.1214 15.7706 22.2814 15.8857 22.4562 15.8857Z" fill="white"/>
<path d="M19.1941 10.0322C18.9813 9.97098 18.7602 10.0946 18.6998 10.3077C18.6394 10.5201 18.7626 10.7412 18.9749 10.8016C21.358 11.4795 23.2564 13.3823 23.9291 15.767C23.9787 15.9429 24.1391 16.0585 24.3138 16.0585C24.3498 16.0585 24.3862 16.0537 24.4226 16.0437C24.635 15.9837 24.7589 15.7626 24.6989 15.5502C23.9515 12.9 21.8423 10.786 19.1941 10.0322Z" fill="white"/>
<path d="M15 11.5L17 14L15.5 15.5C16.4418 14.5582 16.5591 14.7742 16.5 15L16.25 15.75L16.5 16V16.5L18 18L18.5 18.5H19.5L20.5 18H21.5L22 18.5L23 19.5H23.5L22 21.5H20.5L16.5 19L13 14.5V13L14 12L14.5 11.5H15Z" fill="white"/>
</svg>
