<svg width="17" height="17" viewBox="0 0 17 17" fill="none" xmlns="http://www.w3.org/2000/svg">
<path d="M0 8.16C0 4.31332 0 2.39001 1.195 1.195C2.39001 0 4.31332 0 8.16 0H8.84C12.6867 0 14.61 0 15.805 1.195C17 2.39001 17 4.31332 17 8.16V8.84C17 12.6867 17 14.61 15.805 15.805C14.61 17 12.6867 17 8.84 17H8.16C4.31332 17 2.39001 17 1.195 15.805C0 14.61 0 12.6867 0 8.84V8.16Z" fill="black"/>
<path d="M6.25622 11.8935L6.41185 11.9704C7.0604 12.355 7.78671 12.5345 8.51306 12.5345C10.7958 12.5345 12.6635 10.6884 12.6635 8.43211C12.6635 7.35525 12.2225 6.30401 11.4443 5.5348C10.6661 4.76559 9.62846 4.32973 8.51306 4.32973C6.2303 4.32973 4.36256 6.1758 4.38852 8.45777C4.38852 9.22694 4.62198 9.97053 5.01107 10.6115L5.11483 10.7654L4.69981 12.2781L6.25622 11.8935Z" fill="black"/>
<path d="M11.8853 5.12455C11.0033 4.22717 9.78412 3.74 8.53897 3.74C5.89308 3.74 3.76596 5.86811 3.79188 8.45773C3.79188 9.27821 4.02534 10.0731 4.41447 10.791L3.74 13.2268L6.25622 12.5858C6.95661 12.9704 7.73479 13.1499 8.51305 13.1499C11.133 13.1499 13.2601 11.0217 13.2601 8.43215C13.2601 7.17576 12.7672 5.99631 11.8853 5.12455ZM8.53897 12.355C7.83858 12.355 7.13819 12.1756 6.54156 11.8166L6.38593 11.7397L4.8814 12.1243L5.27049 10.6628L5.16674 10.509C4.02534 8.68856 4.5701 6.27835 6.4378 5.15017C8.30551 4.02203 10.718 4.56048 11.8594 6.40656C13.0007 8.25263 12.456 10.6371 10.5883 11.7653C9.99163 12.1499 9.26532 12.355 8.53897 12.355ZM10.8217 9.50905L10.5364 9.38084C10.5364 9.38084 10.1214 9.20136 9.86195 9.07315C9.836 9.07315 9.81008 9.04749 9.78412 9.04749C9.70629 9.04749 9.65441 9.07315 9.60254 9.0988C9.60254 9.0988 9.57661 9.12442 9.21344 9.53467C9.18748 9.58594 9.13561 9.6116 9.08373 9.6116H9.05777C9.03186 9.6116 8.97998 9.58594 8.95402 9.56032L8.82431 9.50905C8.53897 9.38084 8.27959 9.22698 8.07205 9.02187C8.02017 8.9706 7.94234 8.91932 7.89046 8.86805C7.70887 8.68856 7.52729 8.48342 7.39761 8.25266L7.37166 8.20139C7.34574 8.17573 7.34574 8.15011 7.31978 8.09884C7.31978 8.04756 7.31978 7.99629 7.34574 7.97063C7.34574 7.97063 7.44949 7.84242 7.52729 7.76553C7.5792 7.71421 7.60512 7.63732 7.657 7.58604C7.70887 7.50911 7.73483 7.40656 7.70887 7.32963C7.68295 7.20142 7.37166 6.50914 7.29386 6.35532C7.24195 6.27838 7.19011 6.25277 7.11227 6.22711H6.82693C6.77502 6.22711 6.72318 6.25277 6.67127 6.25277L6.64531 6.27838C6.59343 6.30404 6.54156 6.35532 6.48968 6.38094C6.4378 6.43225 6.41185 6.48349 6.35997 6.5348C6.17838 6.76556 6.07463 7.04759 6.07463 7.32963C6.07463 7.53473 6.12651 7.73987 6.20434 7.91935L6.2303 7.99629C6.46376 8.48342 6.77502 8.91932 7.19011 9.30391L7.29386 9.40646C7.37166 9.48339 7.44949 9.53467 7.50137 9.61156C8.04613 10.0731 8.66868 10.4064 9.36907 10.5859C9.44691 10.6115 9.55066 10.6115 9.62849 10.6372H9.88787C10.0176 10.6372 10.1732 10.5859 10.277 10.5346C10.3548 10.4834 10.4067 10.4834 10.4586 10.4321L10.5105 10.3808C10.5623 10.3295 10.6142 10.3039 10.6661 10.2526C10.718 10.2013 10.7699 10.15 10.7958 10.0987C10.8477 9.99618 10.8736 9.86798 10.8996 9.73981V9.56032C10.8996 9.56032 10.8736 9.53467 10.8217 9.50905Z" fill="white"/>
</svg>
