<svg width="294" height="68" viewBox="0 0 294 68" fill="none" xmlns="http://www.w3.org/2000/svg">
<g clip-path="url(#clip0_40_5)">
<path d="M89.4013 15.8662C89.2806 15.5669 89.102 15.4463 88.8015 15.4463H83.4558C83.1562 15.4463 82.9763 15.5669 82.8548 15.8662L71.0235 52.3501C70.9647 52.4113 70.9647 52.5323 70.9647 52.6516C70.9647 52.9487 71.2038 53.1291 71.6241 53.1291H79.1915C79.4332 53.1291 79.6127 53.0081 79.7337 52.7106L81.475 47.2676C81.533 47.0278 81.7755 46.9076 82.1348 46.9076H90.0615C90.4222 46.9076 90.6621 47.0278 90.7218 47.2676L92.4038 52.7106C92.5249 53.0077 92.7048 53.1291 93.0053 53.1291H100.632C101.053 53.1291 101.293 52.9487 101.293 52.6516C101.293 52.5323 101.293 52.4108 101.233 52.3501L89.4013 15.8662ZM87.9605 40.2675H84.2973C83.7559 40.2675 83.5168 40.0905 83.5168 39.73C83.5765 39.6719 83.5764 39.6112 83.5764 39.553L84.8369 34.7057C85.4375 32.3147 85.8586 30.1619 86.0381 28.3067H86.2789C86.4592 30.5206 86.8211 32.6717 87.3599 34.7057L88.6217 39.553C88.6212 40.0293 88.3808 40.2675 87.9605 40.2675Z" fill="#AF1615"/>
<path d="M123.498 30.6394C122.959 30.3996 121.217 29.8014 120.675 29.5628C120.133 29.3229 118.753 28.8453 118.273 28.4268C117.372 27.7076 116.652 26.9303 116.652 25.7946C116.652 23.6401 118.214 22.2052 120.375 22.2052H121.277C123.319 22.2052 124.76 23.222 125.541 25.2542C125.797 25.8224 125.994 25.9319 126.546 25.6818L132.288 22.7931C132.69 22.6067 132.818 22.3775 132.747 22.0252C132.638 21.4895 132.086 20.2311 130.766 18.7351C128.363 16.0448 125.18 14.7271 121.277 14.7271H120.375C112.928 14.7271 108.243 19.1562 108.243 25.9152C108.243 29.0835 109.083 31.4787 110.767 33.1522C112.446 34.7659 114.91 36.2607 118.214 37.5754L121.154 38.7128C121.696 38.9526 123.017 39.5525 123.439 39.969C124.337 40.5658 124.94 41.5266 124.94 42.7815C124.94 45.1143 123.198 46.3098 120.854 46.3098H119.354C117.311 46.3098 115.871 45.2913 115.091 43.2591C114.892 42.6926 114.674 42.5596 114.188 42.7815L108.374 45.7065C107.881 45.9784 107.724 46.2179 107.979 46.7677C108.262 47.3736 108.605 48.4027 110.046 49.9582C112.328 52.5313 115.45 53.7862 119.354 53.7862H121.276C128.783 53.7862 133.346 49.5396 133.346 42.6605C133.347 36.2017 129.985 33.2138 123.498 30.6394Z" fill="#AF1615"/>
<path d="M62.5233 15.4463H39.5795C39.1596 15.4463 38.9789 15.6263 38.9789 16.0449V52.5318C38.9789 52.9487 39.1596 53.1287 39.5795 53.1287H62.5229C62.9423 53.1287 63.1218 52.9483 63.1218 52.5318V46.2504C63.1218 45.8318 62.9423 45.6523 62.5229 45.6523H48.048C47.6268 45.6523 47.3886 45.4735 47.3886 45.0541V38.3558C47.3886 37.9364 47.6268 37.7576 48.048 37.7576H59.9389C60.3596 37.7576 60.5386 37.5759 60.5386 37.159V30.8806C60.5386 30.4608 60.3596 30.2791 59.9389 30.2791H48.048C47.7689 30.2791 47.5341 30.0666 47.3997 29.9109L41.076 23.6423C40.697 23.2772 40.9438 22.8637 41.3856 22.8637H62.5229C62.9423 22.8637 63.1218 22.6837 63.1218 22.3246V16.0449C63.1222 15.6267 62.9423 15.4463 62.5233 15.4463Z" fill="#AF1615"/>
<path d="M218.359 15.4462H211.392C211.031 15.4462 210.851 15.6262 210.851 16.0448V24.538C210.851 28.9061 210.972 33.0317 211.152 37.0393L210.913 37.0991C210.732 36.38 210.312 35.4256 209.65 34.169L199.801 15.8062C199.682 15.5664 199.442 15.4458 199.142 15.4458H192.895C192.475 15.4458 192.293 15.6258 192.293 16.0444V52.5313C192.293 52.9482 192.475 53.1282 192.895 53.1282H199.984C200.402 53.1282 200.583 52.9478 200.583 52.5313V44.157C200.583 38.7735 200.462 34.6466 200.221 31.7763L200.462 31.7152C200.822 32.732 201.244 33.7504 201.723 34.6466L211.573 52.7101C211.694 53.0072 211.934 53.1287 212.233 53.1287H218.36C218.78 53.1287 218.959 52.9482 218.959 52.5318V16.0448C218.959 15.6267 218.779 15.4462 218.359 15.4462Z" fill="#AF1615"/>
<path d="M245.346 14.7271H240.961C233.575 14.7271 228.952 19.0951 228.952 25.6129V42.9008C228.952 49.5405 233.456 53.7867 240.961 53.7867H244.504C251.952 53.7867 256.517 49.5986 256.517 42.9008V33.3908C256.517 32.971 256.337 32.7939 255.918 32.7939H242.403C242.399 32.7939 242.395 32.7952 242.39 32.7952H241.788C241.313 32.7952 241.201 33.0684 241.536 33.4028L248.06 39.901C248.06 39.904 248.063 39.907 248.063 39.913C248.127 40.0015 248.17 40.1143 248.17 40.267V42.9008C248.17 44.8749 246.67 46.3692 244.504 46.3692H240.961C238.859 46.3692 237.18 44.815 237.18 42.9008V25.6134C237.18 23.7004 238.8 22.1475 240.961 22.1475H245.105C246.848 22.1475 248.229 23.2818 249.371 25.6134C249.49 25.9157 249.732 26.0332 250.032 26.0332C250.152 26.0332 250.272 26.0332 250.329 25.9721L256.577 23.042C256.818 22.9214 256.936 22.7427 256.936 22.5062C256.936 22.3857 256.877 22.2651 256.818 22.0846C254.235 17.0616 251.109 14.7271 245.346 14.7271Z" fill="#AF1615"/>
<path d="M181.134 15.4463H173.987C173.567 15.4463 173.386 15.6263 173.386 16.0449V52.5318C173.386 52.9487 173.567 53.1287 173.987 53.1287H181.134C181.556 53.1287 181.794 52.9483 181.794 52.5318V16.0449C181.794 15.6267 181.556 15.4463 181.134 15.4463Z" fill="#AF1615"/>
<path d="M164.231 15.4463H141.351C140.929 15.4463 140.75 15.6263 140.75 16.0449V22.3246C140.75 22.6833 140.929 22.8637 141.351 22.8637H147.959C148.378 22.8637 148.616 23.1036 148.616 23.5218V52.5323C148.616 52.9491 148.797 53.1291 149.217 53.1291H156.364C156.726 53.1291 156.906 52.9487 156.906 52.5323V29.9951C156.906 29.7125 156.706 29.5278 156.706 29.5278L150.808 23.6419C150.397 23.231 150.537 22.8633 151.12 22.8633H164.231C164.593 22.8633 164.771 22.6833 164.771 22.3242V16.0449C164.771 15.6267 164.593 15.4463 164.231 15.4463Z" fill="#AF1615"/>
<path d="M5.76298 34.8109C5.63376 34.5881 5.57065 34.2935 5.56507 34.0015C5.57108 33.7052 5.63419 33.4136 5.76298 33.1895L24.4026 0.682399C24.6743 0.207798 24.4065 0 23.8634 0H19.7163C19.0461 0 18.9427 0.207798 18.6675 0.682399L-2.48104e-05 33.1895C-0.129675 33.414 -0.191495 33.7056 -0.198364 34.0015C-0.191495 34.2931 -0.129675 34.5881 -2.48104e-05 34.8109L18.6675 67.3193C18.9427 67.7926 19.0461 68 19.7163 68H23.8634C24.4065 68 24.6743 67.7931 24.4026 67.3193L5.76298 34.8109Z" fill="#AF1615"/>
<path d="M294 63.1895L275.333 30.6824C275.059 30.2078 274.955 30 274.283 30H270.134C269.594 30 269.323 30.2078 269.597 30.6824L288.237 63.1891C288.367 63.4136 288.429 63.7052 288.435 64.0011C288.429 64.2927 288.367 64.5877 288.237 64.8105L269.597 97.3189C269.323 97.7922 269.594 97.9996 270.134 97.9996H274.283C274.955 97.9996 275.059 97.7926 275.333 97.3189L294 64.8105C294.129 64.5877 294.189 64.2931 294.197 64.0011C294.19 63.7052 294.13 63.4136 294 63.1895Z" fill="#AF1615"/>
</g>
<defs>
<clipPath id="clip0_40_5">
<rect width="294" height="68" fill="white"/>
</clipPath>
</defs>
</svg>
