<svg width="19" height="19" viewBox="0 0 19 19" fill="none" xmlns="http://www.w3.org/2000/svg">
<path fill-rule="evenodd" clip-rule="evenodd" d="M2.01274 1.87012C1.72727 3.84413 1.44589 9.17539 5.63525 13.3647C9.82461 17.5541 15.1559 17.2727 17.1299 16.9873V12.9479L12.9821 12.2566L12.3558 13.509C12.1975 13.8258 11.8737 14.0259 11.5195 14.0259V13.0909C11.5195 14.0259 11.519 14.0259 11.5186 14.0259L11.5176 14.0259L11.5155 14.0259L11.5108 14.0259L11.4992 14.0258C11.4906 14.0256 11.4802 14.0254 11.4679 14.025C11.4434 14.0242 11.4117 14.0228 11.3733 14.0202C11.2965 14.0151 11.1928 14.0054 11.0658 13.9873C10.8122 13.9511 10.4646 13.8807 10.055 13.7442C9.2324 13.47 8.16736 12.9312 7.11806 11.8819C6.06877 10.8326 5.53001 9.7676 5.25582 8.94502C5.11926 8.53535 5.04892 8.18784 5.01268 7.93416C4.99455 7.80725 4.98491 7.70347 4.97979 7.62671C4.97723 7.58831 4.9758 7.55662 4.97501 7.53211C4.97461 7.51985 4.97438 7.50938 4.97424 7.50076L4.9741 7.48922L4.97407 7.48451L4.97407 7.48241L4.97407 7.48143C4.97407 7.48096 4.97407 7.4805 5.90913 7.4805H4.97407C4.97407 7.16786 5.13032 6.8759 5.39045 6.70248L7.56436 5.25321L6.21112 1.87012H2.01274ZM6.91305 7.93502L8.60171 6.80925C9.33755 6.31869 9.62916 5.37977 9.30072 4.55866L7.94749 1.17558C7.66349 0.465569 6.97582 0 6.21112 0H1.96389C1.11438 0 0.314731 0.590176 0.175271 1.5119C-0.142005 3.60887 -0.573861 9.80039 4.31288 14.6871C9.19961 19.5739 15.3911 19.142 17.4881 18.8247C18.4098 18.6853 19 17.8856 19 17.0361V12.9479C19 12.0337 18.3391 11.2535 17.4373 11.1032L13.2895 10.4119C12.4797 10.277 11.6765 10.686 11.3094 11.4203L10.9854 12.0683C10.8835 12.0433 10.7699 12.0112 10.6464 11.97C10.0664 11.7767 9.26127 11.3804 8.44044 10.5596C7.61961 9.73873 7.22331 8.93365 7.02997 8.35363C6.97773 8.1969 6.94012 8.05598 6.91305 7.93502Z" fill="#FF4C00"/>
</svg>
