<svg width="16" height="20" viewBox="0 0 16 20" fill="none" xmlns="http://www.w3.org/2000/svg">
<path fill-rule="evenodd" clip-rule="evenodd" d="M8 2.00002C4.68629 2.00002 2 4.68633 2 8.00007C2 9.02794 2.36394 10.1769 2.9815 11.3679C3.59457 12.5503 4.4236 13.7093 5.27193 14.7394C6.11782 15.7666 6.9665 16.6458 7.60479 17.2689C7.7483 17.409 7.88086 17.5359 8 17.6482C8.11914 17.5359 8.2517 17.409 8.39521 17.2689C9.0335 16.6458 9.88218 15.7666 10.7281 14.7394C11.5764 13.7093 12.4054 12.5503 13.0185 11.3679C13.6361 10.1769 14 9.02794 14 8.00007C14 4.68633 11.3137 2.00002 8 2.00002ZM8 19.0002C7.34921 19.7594 7.34882 19.7591 7.34882 19.7591L7.34671 19.7573L7.34166 19.7529L7.32413 19.7377C7.30918 19.7248 7.28778 19.7061 7.26036 19.6819C7.20552 19.6336 7.12656 19.5634 7.02692 19.4729C6.82772 19.292 6.54544 19.0298 6.20771 18.7001C5.5335 18.0419 4.63218 17.1087 3.72807 16.0108C2.8264 14.9159 1.90543 13.6375 1.206 12.2885C0.511056 10.9483 0 9.47221 0 8.00007C0 3.58175 3.58172 0 8 0C12.4183 0 16 3.58175 16 8.00007C16 9.47221 15.4889 10.9483 14.794 12.2885C14.0946 13.6375 13.1736 14.9159 12.2719 16.0108C11.3678 17.1087 10.4665 18.0419 9.79229 18.7001C9.45456 19.0298 9.17228 19.292 8.97308 19.4729C8.87344 19.5634 8.79448 19.6336 8.73964 19.6819C8.71222 19.7061 8.69082 19.7248 8.67587 19.7377L8.65834 19.7529L8.65329 19.7573L8.65172 19.7586C8.65172 19.7586 8.65079 19.7594 8 19.0002ZM8 19.0002L7.34882 19.7591C7.72331 20.0801 8.2763 20.0804 8.65079 19.7594L8 19.0002ZM8 6.00005C6.89543 6.00005 6 6.89549 6 8.00007C6 9.10464 6.89543 10.0001 8 10.0001C9.10457 10.0001 10 9.10464 10 8.00007C10 6.89549 9.10457 6.00005 8 6.00005ZM4 8.00007C4 5.79091 5.79086 4.00003 8 4.00003C10.2091 4.00003 12 5.79091 12 8.00007C12 10.2092 10.2091 12.0001 8 12.0001C5.79086 12.0001 4 10.2092 4 8.00007Z" fill="#FF4C00"/>
</svg>
