<svg width="32" height="32" viewBox="0 0 32 32" fill="none" xmlns="http://www.w3.org/2000/svg">
<path d="M8.30086 6.4146C7.78017 5.89391 6.93594 5.89391 6.41525 6.4146C5.89454 6.93529 5.89454 7.77952 6.41525 8.30021L14.1149 15.9999L6.41533 23.6995C5.89462 24.2201 5.89462 25.0644 6.41533 25.5851C6.93602 26.1057 7.78025 26.1057 8.30094 25.5851L16.0005 17.8855L23.7001 25.5851C24.2208 26.1057 25.065 26.1057 25.5857 25.5851C26.1064 25.0644 26.1064 24.2201 25.5857 23.6995L17.8861 15.9999L25.5857 8.30021C26.1065 7.77952 26.1065 6.93529 25.5857 6.4146C25.065 5.89391 24.2209 5.89391 23.7001 6.4146L16.0005 14.1143L8.30086 6.4146Z" fill="black"/>
</svg>
