<svg width="32" height="32" viewBox="0 0 32 32" fill="none" xmlns="http://www.w3.org/2000/svg">
<path fill-rule="evenodd" clip-rule="evenodd" d="M0 6C0 4.89543 0.89543 4 2 4H4C5.10457 4 6 4.89543 6 6C6 7.10457 5.10457 8 4 8H2C0.89543 8 0 7.10457 0 6ZM10 6C10 4.89543 10.8954 4 12 4H30C31.1046 4 32 4.89543 32 6C32 7.10457 31.1046 8 30 8H12C10.8954 8 10 7.10457 10 6ZM0 16C0 14.8954 0.89543 14 2 14H4C5.10457 14 6 14.8954 6 16C6 17.1046 5.10457 18 4 18H2C0.89543 18 0 17.1046 0 16ZM10 16C10 14.8954 10.8954 14 12 14H30C31.1046 14 32 14.8954 32 16C32 17.1046 31.1046 18 30 18H12C10.8954 18 10 17.1046 10 16ZM0 26C0 24.8954 0.89543 24 2 24H4C5.10457 24 6 24.8954 6 26C6 27.1046 5.10457 28 4 28H2C0.89543 28 0 27.1046 0 26ZM10 26C10 24.8954 10.8954 24 12 24H30C31.1046 24 32 24.8954 32 26C32 27.1046 31.1046 28 30 28H12C10.8954 28 10 27.1046 10 26Z" fill="#282828"/>
</svg>
