<svg width="76" height="51" viewBox="0 0 76 51" fill="none" xmlns="http://www.w3.org/2000/svg">
<path d="M0.729735 1.42066C0.49741 1.2714 0.430074 0.962061 0.579338 0.729735C0.728601 0.49741 1.03794 0.430074 1.27026 0.579338L0.729735 1.42066ZM75.5252 48.4603C75.5839 48.7301 75.4128 48.9964 75.1429 49.0552L70.7459 50.0123C70.4761 50.071 70.2097 49.8999 70.151 49.6301C70.0923 49.3603 70.2634 49.0939 70.5332 49.0352L74.4417 48.1844L73.5909 44.2759C73.5322 44.0061 73.7033 43.7398 73.9731 43.681C74.2429 43.6223 74.5093 43.7934 74.568 44.0632L75.5252 48.4603ZM1.27026 0.579338L2.11159 1.11987L1.57106 1.96119L0.729735 1.42066L1.27026 0.579338ZM3.79424 2.20093L5.47689 3.28199L4.93636 4.12331L3.25371 3.04225L3.79424 2.20093ZM7.15954 4.36305L8.84219 5.44411L8.30166 6.28543L6.61901 5.20437L7.15954 4.36305ZM10.5248 6.52516L12.2075 7.60622L11.667 8.44755L9.98431 7.36649L10.5248 6.52516ZM13.8901 8.68728L15.5728 9.76834L15.0323 10.6097L13.3496 9.52861L13.8901 8.68728ZM17.2554 10.8494L18.9381 11.9305L18.3976 12.7718L16.7149 11.6907L17.2554 10.8494ZM20.6207 13.0115L22.3034 14.0926L21.7629 14.9339L20.0802 13.8528L20.6207 13.0115ZM23.986 15.1736L25.6687 16.2547L25.1282 17.096L23.4455 16.015L23.986 15.1736ZM27.3513 17.3358L29.034 18.4168L28.4935 19.2581L26.8108 18.1771L27.3513 17.3358ZM30.7166 19.4979L32.3993 20.5789L31.8588 21.4203L30.1761 20.3392L30.7166 19.4979ZM34.0819 21.66L35.7646 22.7411L35.2241 23.5824L33.5414 22.5013L34.0819 21.66ZM37.4472 23.8221L39.1299 24.9032L38.5894 25.7445L36.9067 24.6634L37.4472 23.8221ZM40.8125 25.9842L42.4952 27.0653L41.9547 27.9066L40.272 26.8256L40.8125 25.9842ZM44.1778 28.1464L45.8605 29.2274L45.32 30.0687L43.6373 28.9877L44.1778 28.1464ZM47.5431 30.3085L49.2258 31.3895L48.6853 32.2309L47.0026 31.1498L47.5431 30.3085ZM50.9084 32.4706L52.5911 33.5517L52.0506 34.393L50.3679 33.3119L50.9084 32.4706ZM54.2737 34.6327L55.9564 35.7138L55.4159 36.5551L53.7332 35.474L54.2737 34.6327ZM57.639 36.7948L59.3217 37.8759L58.7812 38.7172L57.0985 37.6362L57.639 36.7948ZM61.0043 38.9569L62.687 40.038L62.1465 40.8793L60.4638 39.7983L61.0043 38.9569ZM64.3696 41.1191L66.0523 42.2001L65.5118 43.0415L63.8291 41.9604L64.3696 41.1191ZM67.7349 43.2812L69.4176 44.3622L68.8771 45.2036L67.1944 44.1225L67.7349 43.2812ZM71.1002 45.4433L72.7829 46.5244L72.2424 47.3657L70.5597 46.2846L71.1002 45.4433ZM74.4655 47.6054L75.3069 48.146L74.7663 48.9873L73.925 48.4467L74.4655 47.6054Z" fill="black"/>
</svg>
